PathFileType	4	(X/Y/Z)	/Users/niels/Desktop/University/Third Semester/Perception and Action/Exam/Gymnastics Motion Tracking/Code for Gym Tracking/Analyzed Data/Webcam_Backflip/id6_1_baseline_Sports2D/id6_1_baseline_Sports2D_px_person00.trc
DataRate	CameraRate	NumFrames	NumMarkers	Units	OrigDataRate	OrigDataStartFrame	OrigNumFrames
29.806451612903224	29.806451612903224	11	22	m	29.806451612903224	116	155
Frame#	Time	Hip			RHip			RKnee			RAnkle			RBigToe			RSmallToe			RHeel			LHip			LKnee			LAnkle			LBigToe			LSmallToe			LHeel			Neck			Head			Nose			RShoulder			RElbow			RWrist			LShoulder			LElbow			LWrist		
		X1	Y1	Z1	X2	Y2	Z2	X3	Y3	Z3	X4	Y4	Z4	X5	Y5	Z5	X6	Y6	Z6	X7	Y7	Z7	X8	Y8	Z8	X9	Y9	Z9	X10	Y10	Z10	X11	Y11	Z11	X12	Y12	Z12	X13	Y13	Z13	X14	Y14	Z14	X15	Y15	Z15	X16	Y16	Z16	X17	Y17	Z17	X18	Y18	Z18	X19	Y19	Z19	X20	Y20	Z20	X21	Y21	Z21	X22	Y22	Z22
116	3.891774891774892	0.9714039380685697	-0.6076149280261555	0.0	0.9707398805712968	-0.6055231839888204	0.0	0.979399493294234	-0.7022747440503315	0.0	0.9602008024317898	-0.7987502453740942	0.0	0.983588351929715	-0.8163546225541715	0.0	0.9760250100625458	-0.8183721393333636	0.0	0.9528492529129784	-0.8142811042558676	0.0	0.9693168792123501	-0.6043771935531	0.0	0.977790548932001	-0.7022115462273544	0.0	0.9593614925611244	-0.794716675548673	0.0	0.9873995834105393	-0.8131738872304421	0.0	0.9813578218566332	-0.8102118326628257	0.0	0.9484812137293345	-0.8080128734268897	0.0	0.9831382776876744	-0.4726087060638518	0.0	0.9979553606995952	-0.4054279448698904	0.0	1.0122205433569935	-0.4386972444464617	0.0	0.9773697388327093	-0.49447682980431407	0.0	0.9802694573117231	-0.5627170639316353	0.0	0.999027582701259	-0.622500640046162	0.0	0.9772367804402344	-0.4908518352612516	0.0	0.9765988473739684	-0.5547281101698261	0.0	0.9944734358370036	-0.6125300952484541	0.0
117	3.9253246753246755	0.97219959924462	-0.6058356665337412	0.0	0.9712048219645216	-0.6037282058748794	0.0	0.9793945132896524	-0.7003418097635687	0.0	0.960088893145161	-0.7964261116023081	0.0	0.9839629966266081	-0.8143034931297062	0.0	0.9761411533131873	-0.8163475629484006	0.0	0.9526898763832389	-0.8122049731114598	0.0	0.9703499519063842	-0.6025157755497639	0.0	0.9782487729513187	-0.7003237147103084	0.0	0.9596217585356134	-0.7925618894946819	0.0	0.9876518966201839	-0.8113868306111591	0.0	0.9819076702889121	-0.808380918982409	0.0	0.9487073687302051	-0.8060890987683671	0.0	0.9837804989006348	-0.47091748655783305	0.0	0.9985048421028755	-0.4036012196634299	0.0	1.012816413977774	-0.4366897334454436	0.0	0.9777672257079322	-0.49295411736403927	0.0	0.9803518391982387	-0.561012094175953	0.0	0.9983644970664977	-0.6213160523150897	0.0	0.9786850307533881	-0.48936581357331815	0.0	0.9770432957884347	-0.5529407101190635	0.0	0.9940382717465749	-0.6109871567547116	0.0
118	3.958874458874459	0.9731886295032199	-0.600842718349261	0.0	0.9718513911009629	-0.5987767129491989	0.0	0.9795090277613625	-0.695536689427474	0.0	0.9600808631042663	-0.7912729273622499	0.0	0.9845924582146632	-0.8100009096560422	0.0	0.9764051152039871	-0.8120013605016192	0.0	0.952572631674293	-0.8074279988885216	0.0	0.9716053992929288	-0.5975113177363449	0.0	0.9788136839673471	-0.6955460005250842	0.0	0.9600699585716852	-0.787571112439451	0.0	0.9882397643237251	-0.8071818925491764	0.0	0.9827361490065697	-0.8042150857231716	0.0	0.9490950570567251	-0.8013988434078102	0.0	0.9844800723460649	-0.4661343706323731	0.0	0.9991666091592262	-0.398548959355395	0.0	1.013435947190254	-0.43167614862997095	0.0	0.9781714483105801	-0.4880456295033833	0.0	0.9798518224376971	-0.5558390481423537	0.0	0.9978762761441147	-0.6160191996780058	0.0	0.9801354750205811	-0.48466049485602203	0.0	0.9776768967943631	-0.5478310924483412	0.0	0.994225663839768	-0.6058498230958613	0.0
119	3.9924242424242427	0.9743471115207631	-0.5932576766072346	0.0	0.9727054647993183	-0.5913268897572648	0.0	0.9797554071315246	-0.6885516929909006	0.0	0.9601814130235622	-0.7840385008040734	0.0	0.9856574956858846	-0.8039791088389334	0.0	0.9770370887787099	-0.8058659966054633	0.0	0.95261609148833	-0.8006365286553898	0.0	0.9730019926812052	-0.5900140443241183	0.0	0.9794206653607016	-0.6885780533421996	0.0	0.9606886205904841	-0.7804552389065317	0.0	0.9893694725272306	-0.8010781262612563	0.0	0.9840459678961218	-0.7981955243750459	0.0	0.9496751070884181	-0.7945786157427847	0.0	0.9852287468778818	-0.4588945317717231	0.0	0.9999623218210181	-0.39097853834811386	0.0	1.0141014273261328	-0.4244005578044447	0.0	0.9786963273987627	-0.4804118198434037	0.0	0.9791434817066921	-0.54799227757665	0.0	0.9978446315259762	-0.6075555516372402	0.0	0.9815203199483221	-0.4773323099069364	0.0	0.9789452991173785	-0.5401334473078055	0.0	0.995563023531395	-0.5979291300520607	0.0
120	4.025974025974026	0.9755483759173855	-0.584016294158403	0.0	0.9737007279613458	-0.5823809997030838	0.0	0.9801225040147887	-0.6802939873534757	0.0	0.9603961703192953	-0.7757418295855539	0.0	0.9873293952324689	-0.7970663762837332	0.0	0.9782554394530948	-0.7987943638390687	0.0	0.9529064869586732	-0.7927878610659894	0.0	0.9743847273791125	-0.5810030421698253	0.0	0.9800227429745803	-0.6803336509316079	0.0	0.9614576856806909	-0.7721979585902001	0.0	0.991133942526503	-0.7939578377158911	0.0	0.9859360017591953	-0.7911504378572942	0.0	0.9504913412882049	-0.7866280747620678	0.0	0.9859875471065801	-0.45012069273524924	0.0	1.0009170031741108	-0.3818712013186192	0.0	1.0148269387241087	-0.4158137502056654	0.0	0.9793726832204428	-0.4710261227153725	0.0	0.9785331406450634	-0.5385264393348936	0.0	0.9983684574015984	-0.59723652353832	0.0	0.982788868338407	-0.46832830443755863	0.0	0.9810145288700043	-0.5308798546258953	0.0	0.998292031581626	-0.5882285861865489	0.0
121	4.05952380952381	0.9766274233960985	-0.5742760166834914	0.0	0.9746881723331504	-0.573104835362782	0.0	0.9806087781780797	-0.6717030841538846	0.0	0.9607244977023921	-0.7674171812122511	0.0	0.9895663431392139	-0.7901776421989153	0.0	0.9800896580245553	-0.7917372354992152	0.0	0.9534378519660869	-0.7848481396288955	0.0	0.9755803066656378	-0.5716167894142948	0.0	0.9806377382821998	-0.671754597112567	0.0	0.9623326917381069	-0.7638283724379417	0.0	0.9934071497374961	-0.7867936788141003	0.0	0.988280928069462	-0.7840181625882785	0.0	0.9515406698473948	-0.7786071270739244	0.0	0.9867206140644202	-0.44086419513780994	0.0	1.0020567694068048	-0.3723504001030838	0.0	1.0156178775049376	-0.4069654057329477	0.0	0.9801149690427798	-0.4610105532160362	0.0	0.9781802963314737	-0.528588866399548	0.0	0.9992943261925257	-0.5864936991872035	0.0	0.9839215250701464	-0.458791118383294	0.0	0.9836855144109761	-0.5212271059797312	0.0	1.0023155753087685	-0.5778142243271456	0.0
122	4.093073593073593	0.9774430142563567	-0.5652209349917755	0.0	0.9755015505781726	-0.5645936762789863	0.0	0.9812249544338499	-0.66365119176131	0.0	0.961162538966221	-0.7599188366604721	0.0	0.9921026803208228	-0.7840922672610469	0.0	0.9823487080823996	-0.7855024806345365	0.0	0.954097688004527	-0.7776233633130912	0.0	0.9764723209757058	-0.5629322283082187	0.0	0.981322702271816	-0.663708525402824	0.0	0.9632589474693153	-0.7562327675246348	0.0	0.9959313787585702	-0.7803966621479118	0.0	0.990808243841182	-0.7775983177334524	0.0	0.9527393510278083	-0.7713835810871958	0.0	0.9874100575298405	-0.43215356012984624	0.0	1.0033922182365276	-0.3635130289590377	0.0	1.01646014359924	-0.3988895598391978	0.0	0.9807805973235781	-0.451493082338863	0.0	0.9781083383858673	-0.5192982296754547	0.0	1.0002900016114125	-0.5766626791799203	0.0	0.9849409295404892	-0.44987567388358435	0.0	0.986577840017041	-0.5123076960164724	0.0	1.0073562893826709	-0.5677553490483852	0.0
123	4.126623376623376	0.9779245405304776	-0.5578446567480128	0.0	0.976034598017016	-0.5577133498918864	0.0	0.9819434557326655	-0.6569067929524989	0.0	0.961684367389913	-0.7538808585771599	0.0	0.9945727677868541	-0.779361296365411	0.0	0.9847223280015068	-0.7806474204453306	0.0	0.9546863699050095	-0.771738448035253	0.0	0.9770536249257333	-0.5558250120492002	0.0	0.9820965615981992	-0.6569507903091675	0.0	0.9641667414925372	-0.7501001123531833	0.0	0.998379377543311	-0.7753348366603061	0.0	0.9931869187724469	-0.772462168889787	0.0	0.9539201412901012	-0.7655681023026836	0.0	0.9880622658609994	-0.42491065780061116	0.0	1.004885981632743	-0.35626244477676117	0.0	1.0173107631030602	-0.3924762165495992	0.0	0.9812655455313074	-0.44348233717235214	0.0	0.9782830843327437	-0.5116244371658051	0.0	1.0010555416028437	-0.5687965592009425	0.0	0.9858994396365555	-0.4425938340857994	0.0	0.9893723738234101	-0.505122694847535	0.0	1.0131113447578879	-0.5590404111325104	0.0
124	4.16017316017316	0.9780946463803332	-0.5528537612222012	0.0	0.9762953230276104	-0.5530675948729621	0.0	0.9826671242383578	-0.6521359196237683	0.0	0.9622203010756868	-0.7497962596443066	0.0	0.9966761595216589	-0.7763344227971961	0.0	0.9869198348593556	-0.7775184045858227	0.0	0.9549991795778777	-0.7677026196715803	0.0	0.9774134639867469	-0.550949982819919	0.0	0.9828926071698432	-0.652125873157777	0.0	0.9649439501456782	-0.7459644106452819	0.0	1.0004175560216215	-0.7719645887020538	0.0	0.9951146833187238	-0.7689847449907934	0.0	0.9548589869197722	-0.7616041897677954	0.0	0.988696989664642	-0.41989495446202	0.0	1.0064236100916486	-0.3512332541009156	0.0	1.0180955959096023	-0.38837542805024294	0.0	0.981544856576782	-0.4377731203487892	0.0	0.9786701026144493	-0.5063006738153067	0.0	1.001524245556218	-0.5635632156589846	0.0	0.9868328222615347	-0.4377164667053868	0.0	0.9919021689131768	-0.5004374903311515	0.0	1.019239312357328	-0.552480317261309	0.0
125	4.193722943722944	0.9780599079700655	-0.5506719350630727	0.0	0.9763878112375602	-0.5510138855204779	0.0	0.9832818175234211	-0.6498715976910839	0.0	0.9626694355253157	-0.7480546595814062	0.0	0.9982473259321418	-0.775220590978874	0.0	0.9887200135855451	-0.7763344010001705	0.0	0.9549252595136141	-0.7659291418535885	0.0	0.9777041492468606	-0.5487310671122434	0.0	0.9835986421358693	-0.6497410794120398	0.0	0.9654609386201024	-0.7442078794152674	0.0	1.0018153156523064	-0.7705014435743972	0.0	0.9964034394349991	-0.7674254892238666	0.0	0.955361021008437	-0.7598229706994364	0.0	0.9893141791502195	-0.41761559200271015	0.0	1.0078195193126862	-0.3488113154285847	0.0	1.0187270444478553	-0.3869647618113842	0.0	0.9816387268057348	-0.43489674935752853	0.0	0.979239743887274	-0.5037749190132507	0.0	1.0018698159170694	-0.5612553631902324	0.0	0.9877306735859077	-0.43571716929712284	0.0	0.9941350389537352	-0.49867030708518506	0.0	1.02531692211225	-0.5486538944710444	0.0
126	4.2272727272727275	0.977959797094205	-0.5514438574856855	0.0	0.9764295728300345	-0.5516729864792419	0.0	0.9837262444161423	-0.650408151314702	0.0	0.9629316886045173	-0.7488633280607712	0.0	0.9991987146404258	-0.776107752525799	0.0	0.9899437543962958	-0.7772091989894756	0.0	0.9544861602502448	-0.7666538063934161	0.0	0.9780824375141156	-0.5493135421124777	0.0	0.9841291904633857	-0.6500726423762633	0.0	0.9656394955495676	-0.7449900427090864	0.0	1.0025130675864389	-0.7710675675188717	0.0	0.9970152705614984	-0.7679742298657106	0.0	0.9553626409668269	-0.7603837502135175	0.0	0.9898663696941334	-0.41824149982337444	0.0	1.0088664841989565	-0.34916202400240753	0.0	1.01914675435857	-0.3883373948581463	0.0	0.9815821201432704	-0.4350839200407292	0.0	0.9799510876961575	-0.5041888450171754	0.0	1.002316511921321	-0.5618690426724423	0.0	0.988547032086585	-0.4367144826486725	0.0	0.9961032565481044	-0.49983425404123555	0.0	1.0308931480437398	-0.5478566254466901	0.0
